<mxfile host="app.diagrams.net" modified="2024-03-04T17:32:35.077Z" agent="Mozilla/5.0 (Windows NT 10.0; Win64; x64) AppleWebKit/537.36 (KHTML, like Gecko) Chrome/122.0.0.0 Safari/537.36" etag="G5j2WMjB3ACBk9X8r_b3" version="24.0.1" type="device">
  <diagram id="prtHgNgQTEPvFCAcTncT" name="Page-1">
    <mxGraphModel dx="1034" dy="550" grid="1" gridSize="10" guides="1" tooltips="1" connect="1" arrows="1" fold="1" page="1" pageScale="1" pageWidth="827" pageHeight="1169" math="0" shadow="0">
      <root>
        <mxCell id="0" />
        <mxCell id="1" parent="0" />
        <mxCell id="dNxyNK7c78bLwvsdeMH5-19" value="DiagnosingPatient" style="swimlane;html=1;childLayout=stackLayout;resizeParent=1;resizeParentMax=0;horizontal=0;startSize=20;horizontalStack=0;" parent="1" vertex="1">
          <mxGeometry x="10" y="120" width="810" height="700" as="geometry" />
        </mxCell>
        <mxCell id="dNxyNK7c78bLwvsdeMH5-20" value="Doctor" style="swimlane;html=1;startSize=20;horizontal=0;" parent="dNxyNK7c78bLwvsdeMH5-19" vertex="1">
          <mxGeometry x="20" width="790" height="120" as="geometry" />
        </mxCell>
        <mxCell id="BY2B35TwLT-QJUL97ECl-45" style="edgeStyle=orthogonalEdgeStyle;rounded=0;orthogonalLoop=1;jettySize=auto;html=1;" parent="dNxyNK7c78bLwvsdeMH5-20" source="dNxyNK7c78bLwvsdeMH5-23" target="BY2B35TwLT-QJUL97ECl-3" edge="1">
          <mxGeometry relative="1" as="geometry" />
        </mxCell>
        <mxCell id="dNxyNK7c78bLwvsdeMH5-23" value="start" style="ellipse;whiteSpace=wrap;html=1;" parent="dNxyNK7c78bLwvsdeMH5-20" vertex="1">
          <mxGeometry x="40" y="40" width="40" height="40" as="geometry" />
        </mxCell>
        <mxCell id="dNxyNK7c78bLwvsdeMH5-32" value="end" style="ellipse;whiteSpace=wrap;html=1;" parent="dNxyNK7c78bLwvsdeMH5-20" vertex="1">
          <mxGeometry x="730" y="40" width="40" height="40" as="geometry" />
        </mxCell>
        <mxCell id="BY2B35TwLT-QJUL97ECl-40" style="edgeStyle=orthogonalEdgeStyle;rounded=0;orthogonalLoop=1;jettySize=auto;html=1;" parent="dNxyNK7c78bLwvsdeMH5-20" source="BY2B35TwLT-QJUL97ECl-3" edge="1">
          <mxGeometry relative="1" as="geometry">
            <mxPoint x="220" y="210" as="targetPoint" />
          </mxGeometry>
        </mxCell>
        <mxCell id="BY2B35TwLT-QJUL97ECl-3" value="OpenMenu" style="rounded=0;whiteSpace=wrap;html=1;" parent="dNxyNK7c78bLwvsdeMH5-20" vertex="1">
          <mxGeometry x="110" y="40" width="90" height="40" as="geometry" />
        </mxCell>
        <mxCell id="BY2B35TwLT-QJUL97ECl-11" value="EnterDiagnosis" style="rounded=0;whiteSpace=wrap;html=1;" parent="dNxyNK7c78bLwvsdeMH5-20" vertex="1">
          <mxGeometry x="260" y="40" width="90" height="40" as="geometry" />
        </mxCell>
        <mxCell id="BhMAaqrHgIMcn_q72_SZ-1" value="System" style="swimlane;html=1;startSize=20;horizontal=0;" vertex="1" parent="dNxyNK7c78bLwvsdeMH5-19">
          <mxGeometry x="20" y="120" width="790" height="230" as="geometry" />
        </mxCell>
        <mxCell id="BhMAaqrHgIMcn_q72_SZ-2" value="PresentForm" style="rounded=0;whiteSpace=wrap;html=1;" vertex="1" parent="BhMAaqrHgIMcn_q72_SZ-1">
          <mxGeometry x="170" y="95" width="90" height="40" as="geometry" />
        </mxCell>
        <mxCell id="BhMAaqrHgIMcn_q72_SZ-3" style="edgeStyle=orthogonalEdgeStyle;rounded=0;orthogonalLoop=1;jettySize=auto;html=1;entryX=0;entryY=0.5;entryDx=0;entryDy=0;" edge="1" parent="BhMAaqrHgIMcn_q72_SZ-1" source="BhMAaqrHgIMcn_q72_SZ-4" target="BhMAaqrHgIMcn_q72_SZ-7">
          <mxGeometry relative="1" as="geometry" />
        </mxCell>
        <mxCell id="BhMAaqrHgIMcn_q72_SZ-4" value="Receive Form" style="rounded=0;whiteSpace=wrap;html=1;" vertex="1" parent="BhMAaqrHgIMcn_q72_SZ-1">
          <mxGeometry x="310" y="95" width="90" height="40" as="geometry" />
        </mxCell>
        <mxCell id="BhMAaqrHgIMcn_q72_SZ-5" style="edgeStyle=orthogonalEdgeStyle;rounded=0;orthogonalLoop=1;jettySize=auto;html=1;" edge="1" parent="BhMAaqrHgIMcn_q72_SZ-1" source="BhMAaqrHgIMcn_q72_SZ-7">
          <mxGeometry relative="1" as="geometry">
            <mxPoint x="550" y="115" as="targetPoint" />
          </mxGeometry>
        </mxCell>
        <mxCell id="BhMAaqrHgIMcn_q72_SZ-6" style="edgeStyle=orthogonalEdgeStyle;rounded=0;orthogonalLoop=1;jettySize=auto;html=1;" edge="1" parent="BhMAaqrHgIMcn_q72_SZ-1" source="BhMAaqrHgIMcn_q72_SZ-7" target="BhMAaqrHgIMcn_q72_SZ-9">
          <mxGeometry relative="1" as="geometry" />
        </mxCell>
        <mxCell id="BhMAaqrHgIMcn_q72_SZ-7" value="SubmitToDatabase" style="rounded=0;whiteSpace=wrap;html=1;" vertex="1" parent="BhMAaqrHgIMcn_q72_SZ-1">
          <mxGeometry x="430" y="95" width="100" height="40" as="geometry" />
        </mxCell>
        <mxCell id="BhMAaqrHgIMcn_q72_SZ-8" style="edgeStyle=orthogonalEdgeStyle;rounded=0;orthogonalLoop=1;jettySize=auto;html=1;" edge="1" parent="BhMAaqrHgIMcn_q72_SZ-1" source="BhMAaqrHgIMcn_q72_SZ-9">
          <mxGeometry relative="1" as="geometry">
            <mxPoint x="750.0000000000002" y="114.99999999999989" as="targetPoint" />
          </mxGeometry>
        </mxCell>
        <mxCell id="BhMAaqrHgIMcn_q72_SZ-9" value="SendConfirmation" style="rounded=0;whiteSpace=wrap;html=1;" vertex="1" parent="BhMAaqrHgIMcn_q72_SZ-1">
          <mxGeometry x="620" y="95" width="100" height="40" as="geometry" />
        </mxCell>
        <mxCell id="BhMAaqrHgIMcn_q72_SZ-10" value="" style="endArrow=none;html=1;rounded=0;" edge="1" parent="BhMAaqrHgIMcn_q72_SZ-1">
          <mxGeometry width="50" height="50" relative="1" as="geometry">
            <mxPoint x="550" y="165" as="sourcePoint" />
            <mxPoint x="550" y="65" as="targetPoint" />
          </mxGeometry>
        </mxCell>
        <mxCell id="BhMAaqrHgIMcn_q72_SZ-11" value="" style="endArrow=none;html=1;rounded=0;" edge="1" parent="BhMAaqrHgIMcn_q72_SZ-1">
          <mxGeometry width="50" height="50" relative="1" as="geometry">
            <mxPoint x="580" y="160" as="sourcePoint" />
            <mxPoint x="580" y="110" as="targetPoint" />
          </mxGeometry>
        </mxCell>
        <mxCell id="BhMAaqrHgIMcn_q72_SZ-12" value="" style="endArrow=none;html=1;rounded=0;" edge="1" parent="BhMAaqrHgIMcn_q72_SZ-1">
          <mxGeometry width="50" height="50" relative="1" as="geometry">
            <mxPoint x="750" y="165" as="sourcePoint" />
            <mxPoint x="750" y="65" as="targetPoint" />
          </mxGeometry>
        </mxCell>
        <mxCell id="dNxyNK7c78bLwvsdeMH5-21" value="System" style="swimlane;html=1;startSize=20;horizontal=0;" parent="dNxyNK7c78bLwvsdeMH5-19" vertex="1">
          <mxGeometry x="20" y="350" width="790" height="230" as="geometry" />
        </mxCell>
        <mxCell id="BY2B35TwLT-QJUL97ECl-4" value="PresentForm" style="rounded=0;whiteSpace=wrap;html=1;" parent="dNxyNK7c78bLwvsdeMH5-21" vertex="1">
          <mxGeometry x="170" y="95" width="90" height="40" as="geometry" />
        </mxCell>
        <mxCell id="BY2B35TwLT-QJUL97ECl-43" style="edgeStyle=orthogonalEdgeStyle;rounded=0;orthogonalLoop=1;jettySize=auto;html=1;entryX=0;entryY=0.5;entryDx=0;entryDy=0;" parent="dNxyNK7c78bLwvsdeMH5-21" source="BY2B35TwLT-QJUL97ECl-12" target="BY2B35TwLT-QJUL97ECl-34" edge="1">
          <mxGeometry relative="1" as="geometry" />
        </mxCell>
        <mxCell id="BY2B35TwLT-QJUL97ECl-12" value="Receive Form" style="rounded=0;whiteSpace=wrap;html=1;" parent="dNxyNK7c78bLwvsdeMH5-21" vertex="1">
          <mxGeometry x="310" y="95" width="90" height="40" as="geometry" />
        </mxCell>
        <mxCell id="BY2B35TwLT-QJUL97ECl-39" style="edgeStyle=orthogonalEdgeStyle;rounded=0;orthogonalLoop=1;jettySize=auto;html=1;" parent="dNxyNK7c78bLwvsdeMH5-21" source="BY2B35TwLT-QJUL97ECl-34" edge="1">
          <mxGeometry relative="1" as="geometry">
            <mxPoint x="550" y="115" as="targetPoint" />
          </mxGeometry>
        </mxCell>
        <mxCell id="BY2B35TwLT-QJUL97ECl-50" style="edgeStyle=orthogonalEdgeStyle;rounded=0;orthogonalLoop=1;jettySize=auto;html=1;" parent="dNxyNK7c78bLwvsdeMH5-21" source="BY2B35TwLT-QJUL97ECl-34" target="BY2B35TwLT-QJUL97ECl-37" edge="1">
          <mxGeometry relative="1" as="geometry" />
        </mxCell>
        <mxCell id="BY2B35TwLT-QJUL97ECl-34" value="SubmitToDatabase" style="rounded=0;whiteSpace=wrap;html=1;" parent="dNxyNK7c78bLwvsdeMH5-21" vertex="1">
          <mxGeometry x="430" y="95" width="100" height="40" as="geometry" />
        </mxCell>
        <mxCell id="BY2B35TwLT-QJUL97ECl-54" style="edgeStyle=orthogonalEdgeStyle;rounded=0;orthogonalLoop=1;jettySize=auto;html=1;" parent="dNxyNK7c78bLwvsdeMH5-21" source="BY2B35TwLT-QJUL97ECl-37" edge="1">
          <mxGeometry relative="1" as="geometry">
            <mxPoint x="750.0000000000002" y="114.99999999999989" as="targetPoint" />
          </mxGeometry>
        </mxCell>
        <mxCell id="BY2B35TwLT-QJUL97ECl-37" value="SendConfirmation" style="rounded=0;whiteSpace=wrap;html=1;" parent="dNxyNK7c78bLwvsdeMH5-21" vertex="1">
          <mxGeometry x="620" y="95" width="100" height="40" as="geometry" />
        </mxCell>
        <mxCell id="BY2B35TwLT-QJUL97ECl-38" value="" style="endArrow=none;html=1;rounded=0;" parent="dNxyNK7c78bLwvsdeMH5-21" edge="1">
          <mxGeometry width="50" height="50" relative="1" as="geometry">
            <mxPoint x="550" y="165" as="sourcePoint" />
            <mxPoint x="550" y="65" as="targetPoint" />
          </mxGeometry>
        </mxCell>
        <mxCell id="BY2B35TwLT-QJUL97ECl-49" value="" style="endArrow=none;html=1;rounded=0;" parent="dNxyNK7c78bLwvsdeMH5-21" edge="1">
          <mxGeometry width="50" height="50" relative="1" as="geometry">
            <mxPoint x="580" y="160" as="sourcePoint" />
            <mxPoint x="580" y="120" as="targetPoint" />
          </mxGeometry>
        </mxCell>
        <mxCell id="BY2B35TwLT-QJUL97ECl-52" value="" style="endArrow=none;html=1;rounded=0;" parent="dNxyNK7c78bLwvsdeMH5-21" edge="1">
          <mxGeometry width="50" height="50" relative="1" as="geometry">
            <mxPoint x="750" y="165" as="sourcePoint" />
            <mxPoint x="750" y="65" as="targetPoint" />
          </mxGeometry>
        </mxCell>
        <mxCell id="dNxyNK7c78bLwvsdeMH5-22" value="DataBase" style="swimlane;html=1;startSize=20;horizontal=0;" parent="dNxyNK7c78bLwvsdeMH5-19" vertex="1">
          <mxGeometry x="20" y="580" width="790" height="120" as="geometry" />
        </mxCell>
        <mxCell id="BY2B35TwLT-QJUL97ECl-55" style="edgeStyle=orthogonalEdgeStyle;rounded=0;orthogonalLoop=1;jettySize=auto;html=1;" parent="dNxyNK7c78bLwvsdeMH5-22" source="BY2B35TwLT-QJUL97ECl-35" edge="1">
          <mxGeometry relative="1" as="geometry">
            <mxPoint x="750" y="-110" as="targetPoint" />
            <Array as="points">
              <mxPoint x="730" y="60" />
              <mxPoint x="730" y="-34" />
              <mxPoint x="731" y="-34" />
              <mxPoint x="731" y="-110" />
            </Array>
          </mxGeometry>
        </mxCell>
        <mxCell id="BY2B35TwLT-QJUL97ECl-35" value="UpdateRecord" style="rounded=0;whiteSpace=wrap;html=1;" parent="dNxyNK7c78bLwvsdeMH5-22" vertex="1">
          <mxGeometry x="620" y="40" width="100" height="40" as="geometry" />
        </mxCell>
        <mxCell id="BY2B35TwLT-QJUL97ECl-51" value="" style="endArrow=classic;html=1;rounded=0;entryX=0;entryY=0.75;entryDx=0;entryDy=0;" parent="dNxyNK7c78bLwvsdeMH5-22" target="BY2B35TwLT-QJUL97ECl-35" edge="1">
          <mxGeometry width="50" height="50" relative="1" as="geometry">
            <mxPoint x="580" y="-70" as="sourcePoint" />
            <mxPoint x="600" y="40" as="targetPoint" />
            <Array as="points">
              <mxPoint x="580" y="70" />
            </Array>
          </mxGeometry>
        </mxCell>
        <mxCell id="BY2B35TwLT-QJUL97ECl-41" style="edgeStyle=orthogonalEdgeStyle;rounded=0;orthogonalLoop=1;jettySize=auto;html=1;entryX=0.333;entryY=1;entryDx=0;entryDy=0;entryPerimeter=0;" parent="dNxyNK7c78bLwvsdeMH5-19" source="BY2B35TwLT-QJUL97ECl-4" target="BY2B35TwLT-QJUL97ECl-11" edge="1">
          <mxGeometry relative="1" as="geometry">
            <Array as="points">
              <mxPoint x="310" y="465" />
            </Array>
          </mxGeometry>
        </mxCell>
        <mxCell id="BY2B35TwLT-QJUL97ECl-42" style="edgeStyle=orthogonalEdgeStyle;rounded=0;orthogonalLoop=1;jettySize=auto;html=1;entryX=0.611;entryY=0.05;entryDx=0;entryDy=0;entryPerimeter=0;" parent="dNxyNK7c78bLwvsdeMH5-19" source="BY2B35TwLT-QJUL97ECl-11" target="BY2B35TwLT-QJUL97ECl-12" edge="1">
          <mxGeometry relative="1" as="geometry">
            <Array as="points">
              <mxPoint x="385" y="60" />
            </Array>
          </mxGeometry>
        </mxCell>
        <mxCell id="BY2B35TwLT-QJUL97ECl-53" style="edgeStyle=orthogonalEdgeStyle;rounded=0;orthogonalLoop=1;jettySize=auto;html=1;entryX=1;entryY=1;entryDx=0;entryDy=0;" parent="dNxyNK7c78bLwvsdeMH5-19" source="BY2B35TwLT-QJUL97ECl-37" target="dNxyNK7c78bLwvsdeMH5-32" edge="1">
          <mxGeometry relative="1" as="geometry" />
        </mxCell>
      </root>
    </mxGraphModel>
  </diagram>
</mxfile>
